<svg id="Capa_1" enable-background="new 0 0 512.004 512.004" height="512" viewBox="0 0 512.004 512.004" width="512" xmlns="http://www.w3.org/2000/svg"><g><g><g fill="#d9e7ec"><path d="m464.749 137.563v-23.295c0-7.146-5.847-12.994-12.994-12.994h-63.524c-7.146 0-12.994 5.847-12.994 12.994v23.295z"/><path d="m110.65 101.275h-37.152c-7.146 0-12.994 5.847-12.994 12.994v23.295h63.139v-23.295c0-7.147-5.847-12.994-12.993-12.994z"/><path d="m197.339 137.563v-44.77c0-4.615-3.776-8.392-8.392-8.392h-23.28c-4.615 0-8.392 3.776-8.392 8.392v44.77z"/></g><path d="m419.712 101.275h-31.48c-7.146 0-12.994 5.847-12.994 12.994v23.295h31.48v-23.295c0-7.147 5.847-12.994 12.994-12.994z" fill="#c4d2dd"/><path d="m104.979 101.275h-31.481c-7.146 0-12.993 5.847-12.993 12.994v23.295h31.48v-23.295c0-7.147 5.847-12.994 12.994-12.994z" fill="#c4d2dd"/><path d="m185.917 84.401h-20.25c-4.615 0-8.392 3.776-8.392 8.392v44.77h20.25v-44.77c.001-4.616 3.777-8.392 8.392-8.392z" fill="#c4d2dd"/><path d="m491.589 135.563h-471.016c-7.146 0-12.994 5.847-12.994 12.994v73.758h198.377c15.064-7.616 32.092-11.911 50.125-11.911s35.061 4.295 50.125 11.911h198.376v-73.758c.001-7.146-5.846-12.994-12.993-12.994z" fill="#e8f9fc"/><g><path d="m64.698 135.563h-44.125c-7.146 0-12.994 5.847-12.994 12.994v73.758h44.125v-73.758c.001-7.146 5.848-12.994 12.994-12.994z" fill="#d9e7ec"/></g><path d="m187.486 397.351c-21.349-20.272-34.662-48.926-34.662-80.69 0-43.413 24.867-81.013 61.132-99.347h-206.377v180.037z" fill="#ffb640"/><path d="m7.579 217.315h44.125v180.037h-44.125z" fill="#ffa90f"/><path d="m361.339 316.661c0 31.764-13.313 60.418-34.663 80.69h177.907v-180.036h-204.377c36.265 18.333 61.133 55.934 61.133 99.346z" fill="#ffb640"/><path d="m7.579 414.925c0 7.146 5.847 12.994 12.994 12.994h235.508c-30.713 0-47.519-12.445-67.651-32.567h-180.851z" fill="#e8f9fc"/><path d="m51.705 414.925v-19.574h-44.126v19.574c0 7.146 5.847 12.994 12.994 12.994h44.125c-7.146 0-12.993-5.848-12.993-12.994z" fill="#d9e7ec"/><path d="m328.732 395.351c-20.132 20.122-41.938 32.567-72.651 32.567h235.508c7.147 0 12.994-5.847 12.994-12.994v-19.574h-175.851z" fill="#e8f9fc"/><circle cx="256.081" cy="316.661" fill="#7b6c79" r="111.257"/><path d="m184.21 316.661c0-54.726 39.512-100.222 91.564-109.52-6.392-1.142-12.973-1.738-19.693-1.738-61.446 0-111.257 49.812-111.257 111.257s49.812 111.257 111.257 111.257c6.72 0 13.302-.596 19.693-1.738-52.052-9.295-91.564-54.792-91.564-109.518z" fill="#665e68"/><path d="m470.885 160.859h-66.946c-3.717 0-6.73 3.013-6.73 6.73v17.7c0 3.717 3.013 6.73 6.73 6.73h66.946c3.717 0 6.73-3.013 6.73-6.73v-17.7c-.001-3.717-3.014-6.73-6.73-6.73z" fill="#7b6c79"/><path d="m430.209 185.289v-17.7c0-3.717 3.013-6.73 6.73-6.73h-33c-3.717 0-6.73 3.013-6.73 6.73v17.7c0 3.717 3.013 6.73 6.73 6.73h33c-3.717 0-6.73-3.013-6.73-6.73z" fill="#665e68"/><path d="m69.4 185.289v-17.7c0-3.717-3.013-6.73-6.73-6.73h-18.581c-3.717 0-6.73 3.013-6.73 6.73v17.7c0 3.717 3.013 6.73 6.73 6.73h18.581c3.717 0 6.73-3.013 6.73-6.73z" fill="#62ddfc"/><circle cx="256.081" cy="316.661" fill="#62ddfc" r="78.773"/><path d="m216.694 316.661c0-36.638 25.143-67.514 59.08-76.281-6.297-1.627-12.896-2.493-19.693-2.493-43.436 0-78.773 35.338-78.773 78.773s35.338 78.773 78.773 78.773c6.798 0 13.397-.866 19.693-2.493-33.937-8.765-59.08-39.641-59.08-76.279z" fill="#00d2fc"/><circle cx="256.081" cy="316.661" fill="#00d2fc" r="39.387"/><path d="m256.081 316.661c0-14.546 7.933-27.267 19.693-34.088-5.798-3.363-12.522-5.299-19.694-5.299-21.718 0-39.387 17.669-39.387 39.387s17.669 39.387 39.387 39.387c7.172 0 13.895-1.936 19.694-5.299-11.76-6.821-19.693-19.541-19.693-34.088z" fill="#00c2fb"/></g><g><path d="m256.002 230.23c-47.571 0-86.273 38.702-86.273 86.273s38.702 86.273 86.273 86.273 86.273-38.702 86.273-86.273-38.702-86.273-86.273-86.273zm0 157.547c-39.301 0-71.273-31.973-71.273-71.273s31.973-71.273 71.273-71.273 71.273 31.973 71.273 71.273-31.972 71.273-71.273 71.273z"/><path d="m256.002 269.617c-25.854 0-46.887 21.033-46.887 46.887s21.033 46.887 46.887 46.887 46.887-21.033 46.887-46.887-21.034-46.887-46.887-46.887zm0 78.773c-17.582 0-31.887-14.304-31.887-31.887s14.305-31.887 31.887-31.887 31.887 14.304 31.887 31.887-14.305 31.887-31.887 31.887z"/><path d="m470.806 199.361c7.846 0 14.229-6.383 14.229-14.229v-17.7c0-7.847-6.384-14.23-14.229-14.23h-66.946c-7.847 0-14.23 6.383-14.23 14.23v17.7c0 7.846 6.384 14.229 14.23 14.229zm-66.176-31.16h65.405v16.16h-65.405z"/><path d="m44.011 153.201c-7.847 0-14.23 6.383-14.23 14.23v17.7c0 7.846 6.384 14.229 14.23 14.229h18.58c7.846 0 14.229-6.383 14.229-14.229v-17.7c0-7.847-6.384-14.23-14.229-14.23zm17.809 31.16h-17.04v-16.16h17.04z"/><path d="m99.406 168.781c-4.143 0-7.5 3.358-7.5 7.5s3.357 7.5 7.5 7.5h61.719c4.143 0 7.5-3.358 7.5-7.5s-3.357-7.5-7.5-7.5z"/><path d="m491.511 127.905h-19.341v-13.795c0-11.3-9.193-20.494-20.494-20.494h-63.523c-11.301 0-20.494 9.193-20.494 20.494v13.795h-94.156c-4.143 0-7.5 3.358-7.5 7.5s3.357 7.5 7.5 7.5h218.009c3.029 0 5.493 2.464 5.493 5.494v61.258h-189.12c-15.704-7.647-33.187-11.911-51.883-11.911-17.746 0-35.347 3.858-51.883 11.911h-189.119v-61.258c0-3.029 2.464-5.494 5.493-5.494h218.009c4.143 0 7.5-3.358 7.5-7.5s-3.357-7.5-7.5-7.5h-33.742v-35.27c0-8.763-7.129-15.892-15.892-15.892h-23.28c-8.763 0-15.892 7.129-15.892 15.892v35.271h-18.632v-13.796c0-11.3-9.193-20.494-20.494-20.494h-37.151c-11.3 0-20.493 9.193-20.493 20.494v13.795h-32.433c-11.3 0-20.493 9.194-20.493 20.494v266.368c0 11.3 9.193 20.494 20.493 20.494h471.018c11.3 0 20.493-9.193 20.493-20.494 0-11.914 0-79.26 0-89.265 0-4.142-3.357-7.5-7.5-7.5s-7.5 3.358-7.5 7.5v62.191h-146.007c15.607-20.791 23.943-45.956 23.752-71.988-.226-35.021-15.686-68.412-43.389-91.049h165.645v65.845c0 4.142 3.357 7.5 7.5 7.5s7.5-3.358 7.5-7.5c0-2.457 0-138.162 0-142.103-.001-11.299-9.194-20.493-20.494-20.493zm-34.341 0h-74.512v-13.795c0-3.029 2.465-5.494 5.494-5.494h63.523c3.029 0 5.494 2.464 5.494 5.494v13.795zm-292.474-35.27c0-.475.417-.892.892-.892h23.28c.475 0 .892.417.892.892v35.271h-25.063v-35.271zm-96.77 21.475c0-3.029 2.464-5.494 5.493-5.494h37.151c3.029 0 5.494 2.464 5.494 5.494v13.795h-48.138zm-52.926 110.547h165.645c-27.046 22.099-43.4 55.419-43.4 91.847 0 25.683 8.258 50.525 23.762 71.19h-146.007zm5.493 195.604c-3.029 0-5.493-2.464-5.493-5.494v-12.074h159.303c7.271 6.902 15.27 12.782 23.817 17.567h-177.627zm476.511-17.568v12.074c0 3.029-2.464 5.494-5.493 5.494h-177.627c8.548-4.785 16.546-10.665 23.817-17.567h159.303zm-137.248-86.401c0 .07.003.141.003.211 0 57.208-46.541 103.757-103.757 103.757-57.17 0-103.758-46.507-103.758-103.757 0-57.22 46.559-103.757 103.758-103.757 56.775 0 103.643 46.079 103.754 103.546z"/></g></g></svg>