<svg viewBox="0 0 24 24" xmlns="http://www.w3.org/2000/svg" xmlns:xlink="http://www.w3.org/1999/xlink"><linearGradient id="a" gradientUnits="userSpaceOnUse" x1="-.401" x2="24.573" y1="4.455" y2="16.101"><stop offset="0" stop-color="#fff" stop-opacity=".2"/><stop offset="1" stop-color="#fff" stop-opacity="0"/></linearGradient><rect height="15" rx="2" width="21" y="2.038"/><path d="m2 3.03815h17a1.001 1.001 0 0 1 1 1v10.293l-7.14648-7.14652a.49983.49983 0 0 0 -.707 0l-5.39652 5.39648-1.89648-1.89648a.49983.49983 0 0 0 -.707 0l-3.14652 3.14648v-9.793a1.001 1.001 0 0 1 1-.99996z" fill="#fff"/><path d="m1.03485 15.21033 3.46515-3.46515 3.14648 3.14648a.49995.49995 0 0 0 .707-.707l-.89648-.89651 5.043-5.043 7.32483 7.32485a.9839.9839 0 0 1 -.82483.46815h-17a.9875.9875 0 0 1 -.96515-.82782z" fill="#8bc34a"/><path d="m6.655 10.666h7.132v.685h-7.132z" fill="#fff" opacity=".2" transform="matrix(.707 -.707 .707 .707 -4.791 10.451)"/><path d="m1.39569 15.81763 3.58838-3.58838-.48407-.48407-3.46515 3.46515a1.01792 1.01792 0 0 0 .36084.6073z" fill="#fff" opacity=".2"/><circle cx="6" cy="6.038" r="2"/><circle cx="6" cy="6.038" fill="#ffc400" r="1"/><circle cx="18" cy="16" r="6"/><circle cx="18" cy="16" fill="#3d5afe" r="5"/><circle cx="18" cy="16" fill="#e6e6e6" r="5"/><path d="m18 11c-.12842 0-.249.02832-.375.0379a4.23888 4.23888 0 1 1 -4.5871 4.5871c-.00958.126-.0379.24658-.0379.375a5 5 0 1 0 5-5z" opacity=".1"/><path d="m19.64648 16.14648-1.14648 1.14652v-3.79251a.5.5 0 0 0 -1 0v3.79251l-1.14648-1.14649a.5.5 0 0 0 -.707.707l2 2a.49984.49984 0 0 0 .707 0l2-2a.5.5 0 0 0 -.707-.707z"/><path d="m21 10.81177v-6.77362a2.00229 2.00229 0 0 0 -2-2h-17a2.00229 2.00229 0 0 0 -2 2v11a2.0023 2.0023 0 0 0 2 2h10.09619a5.99665 5.99665 0 1 0 8.90381-6.22638z" fill="url(#a)"/></svg>