<svg id="Capa_1" enable-background="new 0 0 512 512" height="512" viewBox="0 0 512 512" width="512" xmlns="http://www.w3.org/2000/svg"><g><path d="m432.422 45.484h-352.844c-10.756 0-19.476 8.72-19.476 19.476v86.205h391.795v-86.206c0-10.756-8.719-19.475-19.475-19.475z" fill="#8b8089"/><path d="m392.603 6.682h-273.206c-10.747 0-19.459 8.712-19.459 19.459v159.156h312.124v-159.157c0-10.746-8.712-19.458-19.459-19.458z" fill="#efedef"/><path d="m147.223 6.68h-27.825c-10.749 0-19.461 8.711-19.461 19.461v159.156h27.825v-159.157c.001-10.749 8.712-19.46 19.461-19.46z" fill="#e5e1e5"/><path d="m476.776 400.158h-441.552c-19.454 0-35.224-15.77-35.224-35.224v-178.546c0-19.453 15.77-35.224 35.224-35.224h441.553c19.453 0 35.224 15.77 35.224 35.224v178.547c-.001 19.453-15.771 35.223-35.225 35.223z" fill="#9e9797"/><path d="m62.11 400.15h-26.888c-19.46 0-35.222-15.762-35.222-35.222v-178.54c0-19.46 15.762-35.222 35.222-35.222h26.888c-19.46 0-35.222 15.762-35.222 35.222v178.541c0 19.459 15.762 35.221 35.222 35.221z" fill="#8b8089"/><path d="m412.062 291.536-141.495 33.194-170.629-33.194c-18.334 0-33.196 14.862-33.196 33.196 0 18.334 14.862 33.196 33.196 33.196h312.124c18.334 0 33.196-14.862 33.196-33.196 0-18.333-14.862-33.196-33.196-33.196z" fill="#5b5555"/><path d="m412.066 291.535v194.325c0 10.749-8.711 19.461-19.461 19.461h-273.21c-10.749 0-19.461-8.711-19.461-19.461v-194.325h37.09l114.848 26.599 123.103-26.599z" fill="#efedef"/><path d="m412.066 291.535v33.2h-312.132v-33.2h37.09l145.577 26.601 92.375-26.601z" fill="#e5e1e5"/><path d="m278.891 291.537 74.451 143.463c0 6.397-31.698 33.234-38.106 33.234h-166.611c-6.408 0-11.6-5.202-11.6-11.6v-165.097z" fill="#dff6fd"/><path d="m278.891 291.537 19.521 33.193h-161.388v-33.193z" fill="#c8effe"/><path d="m374.976 291.537v165.097c0 6.397-5.192 11.6-11.6 11.6h-48.14c-7.685-11.301-12.167-24.951-12.167-39.652 0-14.155 4.162-27.331 11.322-38.385-25.713-10.57-43.824-35.861-43.824-65.375v-.093c.02-12.002 3.018-23.303 8.324-33.192z" fill="#86e8d0"/><path d="m374.976 291.537v33.192h-104.409c.02-12.002 3.018-23.303 8.324-33.192z" fill="#5de1c4"/><path d="m459.576 252.428h-116.216c-12.607 0-22.827-10.22-22.827-22.827v-28.505c0-12.607 10.22-22.827 22.827-22.827h116.216c12.607 0 22.827 10.22 22.827 22.827v28.505c0 12.607-10.22 22.827-22.827 22.827z" fill="#dff6fd"/><path d="m373.596 252.423h-30.232c-12.608 0-22.831-10.212-22.831-22.82v-28.508c0-12.608 10.223-22.831 22.831-22.831h30.232c-12.608 0-22.831 10.223-22.831 22.831v28.508c0 12.609 10.223 22.82 22.831 22.82z" fill="#c8effe"/><path d="m459.575 260.155h-116.215c-16.848 0-30.554-13.706-30.554-30.554v-28.505c0-16.848 13.706-30.554 30.554-30.554h116.215c16.848 0 30.554 13.706 30.554 30.554v28.505c.001 16.847-13.705 30.554-30.554 30.554zm-116.215-74.16c-8.327 0-15.102 6.774-15.102 15.101v28.505c0 8.327 6.775 15.101 15.102 15.101h116.215c8.327 0 15.102-6.774 15.102-15.101v-28.505c0-8.327-6.775-15.101-15.102-15.101z" fill="#8b8089"/><circle cx="84.536" cy="215.348" fill="#86e8d0" r="24.434"/><circle cx="160.897" cy="215.348" fill="#fe7c66" r="24.434"/><circle cx="211.827" cy="396.555" fill="#ffe177" r="33.255"/></g></svg>